#N canvas 1032 119 228 323 10;
#X obj 55 72 netreceive -b -u;
#X obj 56 95 oscparse;
#X obj 55 119 list trim;
#X msg 55 18 listen 7777;
#X msg 71 37 listen 0;
#X obj 56 143 route zones;
#X obj 56 174 route presence;
#X obj 55 203 list prepend set;
#X msg 55 254 0 0 0 1;
#X obj 55 226 list trim;
#X connect 0 0 1 0;
#X connect 1 0 2 0;
#X connect 2 0 5 0;
#X connect 3 0 0 0;
#X connect 4 0 0 0;
#X connect 5 0 6 0;
#X connect 6 0 7 0;
#X connect 7 0 9 0;
#X connect 9 0 8 0;
